<svg xmlns="http://www.w3.org/2000/svg" xmlns:xlink="http://www.w3.org/1999/xlink" viewBox="0 0 959.93 411.76"><defs><style>.cls-1{fill:url(#linear-gradient);}</style><linearGradient id="linear-gradient" y1="205.88" x2="959.93" y2="205.88" gradientUnits="userSpaceOnUse"><stop offset="0" stop-color="#ff992e"/><stop offset="0.22" stop-color="#f88138"/><stop offset="0.67" stop-color="#e74453"/><stop offset="1" stop-color="#da1467"/></linearGradient></defs><title>EzDeFi Gateways</title><g id="Layer_2" data-name="Layer 2"><g id="Layer_1-2" data-name="Layer 1"><path class="cls-1" d="M574.2,252.94a104.24,104.24,0,0,1-39,32.63q-23.79,11.7-53.17,11.7H412.61l32.24-183.82h69.42q25.74,0,44.2,8.84t27.95,25.09q9.48,16.26,9.49,38.09a102.24,102.24,0,0,1-1.82,19.5A113.18,113.18,0,0,1,574.2,252.94Zm-46.41-9.23q16.89-13.77,21.32-38.74a73.24,73.24,0,0,0,1.3-12.48q0-19.23-12.22-29.64t-34.58-10.4H482.55l-18.46,105h21.06Q510.89,257.49,527.79,243.71Zm201.88-78.13q16.26,15.21,16.25,40.69a99.22,99.22,0,0,1-1.3,14.56,55.39,55.39,0,0,1-3.38,12H640.62c-.34,3.47-.52,5.81-.52,7q0,23.67,22.62,23.66a30.53,30.53,0,0,0,17.16-4.94,28.61,28.61,0,0,0,10.92-12.74h47.06a78.8,78.8,0,0,1-29.77,38.48q-21.18,14.82-49.53,14.82-28.08,0-44.59-15.6t-16.51-43.16A107.82,107.82,0,0,1,599,222.65q3.9-22.1,16.12-38.48a81.56,81.56,0,0,1,30.29-25.09,89.63,89.63,0,0,1,39.39-8.71Q713.43,150.37,729.67,165.58Zm-28.21,40.69q0-10.4-6.5-15.6t-16.38-5.2A34.2,34.2,0,0,0,657,192.75q-9.36,7.29-13,21.32h56.68A45.41,45.41,0,0,0,701.46,206.27Zm246.77-54.08L922.49,297.27H878l25.48-145.08Zm-33-56.29Q924,88,937.31,88q10.4,0,16.51,5.33a17.6,17.6,0,0,1,6.11,13.91,25.21,25.21,0,0,1-8.71,19.37q-8.72,7.94-22,7.93-10.66,0-16.77-5.33a17.27,17.27,0,0,1-6.11-13.65A25.3,25.3,0,0,1,915.21,95.9ZM201.39,255.54a5.68,5.68,0,0,1-3.31-10.29L299.14,173c24.88-17.79,58.69,4.07,52.69,34.06h0a60.27,60.27,0,0,1-59.1,48.45ZM64.39,37.79.93,355.57A47,47,0,0,0,47,411.76H305.22A47,47,0,0,0,351.3,374h0a47,47,0,0,0-46.08-56.2h-160A38.89,38.89,0,0,1,107.17,271h0a48.17,48.17,0,0,1,19.1-29.39l98.94-71a6.65,6.65,0,0,0-3.87-12H169.19A32.3,32.3,0,0,1,137.51,120h0a32.31,32.31,0,0,1,31.68-26H363.37a47,47,0,0,0,46.08-37.77h0A47,47,0,0,0,363.37,0H110.47A47,47,0,0,0,64.39,37.79ZM893,113.45l-6.24,35.36h-75.4l-7,40.3h58.24l-6,33.8h-58l-13.26,74.36H740.9l32.24-183.82ZM462.86,322.15a20.16,20.16,0,0,1,6.48,14h-14.4a9,9,0,0,0-3.6-4.84,11.84,11.84,0,0,0-6.8-1.8,16,16,0,0,0-11.2,4.36,20.13,20.13,0,0,0-6,11.8,22.27,22.27,0,0,0-.4,4.4q0,6,3.4,9.16t9.88,3.16a16.37,16.37,0,0,0,9-2.68,18.28,18.28,0,0,0,6.56-7.64H438.54l1.76-9.84h28.64l-2.32,13.52a31.89,31.89,0,0,1-11.32,13.56q-7.56,5.16-18.6,5.16a26.91,26.91,0,0,1-12.8-2.84,19.45,19.45,0,0,1-8.2-8,24.89,24.89,0,0,1-2.84-12.16,35.6,35.6,0,0,1,.56-6.4,35,35,0,0,1,6-14.56,32.12,32.12,0,0,1,11.64-10,33.56,33.56,0,0,1,15.52-3.6Q457,316.83,462.86,322.15Zm42.6,9a10.39,10.39,0,0,1,4.44,6.28l1.44-8.08H525L517.1,374H503.42l1.52-8.08a17.43,17.43,0,0,1-6.52,6.32,18.65,18.65,0,0,1-9.32,2.32q-7.29,0-11.52-4.68t-4.24-13a35.6,35.6,0,0,1,.56-6.4,29.85,29.85,0,0,1,4.52-11.56,23,23,0,0,1,8.08-7.52,20.81,20.81,0,0,1,10.12-2.6A15.45,15.45,0,0,1,505.46,331.11Zm-13.52,12.52a13.29,13.29,0,0,0-4.12,8,16.16,16.16,0,0,0-.24,2.64,8.11,8.11,0,0,0,2.2,6.08,8,8,0,0,0,5.88,2.16,11,11,0,0,0,7.6-3,13.5,13.5,0,0,0,4.16-7.92,14.71,14.71,0,0,0,.24-2.56,8.31,8.31,0,0,0-2.2-6.12,8,8,0,0,0-5.88-2.2A11.11,11.11,0,0,0,491.94,343.63Zm52.76,13.84a12.61,12.61,0,0,0-.16,1.52,2.92,2.92,0,0,0,1,2.44,5,5,0,0,0,3.12.76h4.32L550.86,374h-6.24q-6.72,0-10.36-2.8t-3.64-9.2a25.72,25.72,0,0,1,.4-4.72l2.88-16.4H528l2.08-11.52H536l1.92-11h13.76l-1.92,11h8.88l-2,11.52h-9Zm56.68-24q5,4.68,5,12.52a31.61,31.61,0,0,1-.4,4.48,17.45,17.45,0,0,1-1,3.68H574c-.11,1.07-.16,1.79-.16,2.16q0,7.29,7,7.28a9.38,9.38,0,0,0,5.28-1.52,8.89,8.89,0,0,0,3.36-3.92H603.9A24.27,24.27,0,0,1,594.74,370a25.93,25.93,0,0,1-15.24,4.56q-8.64,0-13.72-4.8t-5.08-13.28a33.22,33.22,0,0,1,.48-5.44,27.43,27.43,0,0,1,5-11.84,25,25,0,0,1,9.32-7.72,27.59,27.59,0,0,1,12.12-2.68Q596.37,328.75,601.38,333.43ZM592.7,346a5.8,5.8,0,0,0-2-4.8,7.88,7.88,0,0,0-5-1.6,10.53,10.53,0,0,0-6.64,2.24,11.69,11.69,0,0,0-4,6.56h17.44A13.88,13.88,0,0,0,592.7,346Zm88.4-16.64L661.74,374H646.46l-2.8-30-13.52,30H614.86l-3.44-44.64H625l.24,32.16,14-32.16h14.56l2.88,32.24,11.68-32.24Zm30.36,1.8a10.48,10.48,0,0,1,4.44,6.28l1.43-8.08H731L723.09,374H709.42l1.52-8.08a17.5,17.5,0,0,1-6.52,6.32,18.67,18.67,0,0,1-9.33,2.32q-7.27,0-11.51-4.68t-4.25-13a35.6,35.6,0,0,1,.57-6.4,29.69,29.69,0,0,1,4.52-11.56,23,23,0,0,1,8.08-7.52,20.8,20.8,0,0,1,10.11-2.6A15.49,15.49,0,0,1,711.46,331.11Zm-13.52,12.52a13.3,13.3,0,0,0-4.13,8,16.08,16.08,0,0,0-.23,2.64,8.15,8.15,0,0,0,2.19,6.08,8,8,0,0,0,5.88,2.16,10.94,10.94,0,0,0,7.6-3,13.46,13.46,0,0,0,4.17-7.92,14.65,14.65,0,0,0,.23-2.56,8.3,8.3,0,0,0-2.19-6.12,8,8,0,0,0-5.88-2.2A11.1,11.1,0,0,0,697.94,343.63Zm51.71-14.32,5.84,27.36,14.8-27.36h15.2L746,395.23H730.85l14.64-23-11.12-43ZM818.93,333a15.7,15.7,0,0,1,5.52,11.24H811a5.3,5.3,0,0,0-2.08-4.32,8.79,8.79,0,0,0-5.44-1.52,7.62,7.62,0,0,0-4,1,3.1,3.1,0,0,0-1.56,2.8,3.18,3.18,0,0,0,2.16,2.88,36.34,36.34,0,0,0,6.56,2.16,79.72,79.72,0,0,1,8,2.6,14,14,0,0,1,5.32,3.76,9.53,9.53,0,0,1,2.24,6.6,12.9,12.9,0,0,1-.32,3,12.35,12.35,0,0,1-5.8,8.2q-4.83,3.16-13,3.16-9,0-14.52-4a14.17,14.17,0,0,1-5.8-11.4h13.44a4.5,4.5,0,0,0,2,4.4,10.5,10.5,0,0,0,6,1.52,6.45,6.45,0,0,0,4.08-1.08,3.43,3.43,0,0,0,1.36-2.84,3.2,3.2,0,0,0-2.08-3,44.8,44.8,0,0,0-6.72-2.28,61.45,61.45,0,0,1-7.68-2.44,14.14,14.14,0,0,1-5.24-3.68,9.27,9.27,0,0,1-2.2-6.44,23.24,23.24,0,0,1,.32-3,12.06,12.06,0,0,1,5.68-8.28q4.89-3.24,13-3.24Q814,328.75,818.93,333Z"/></g></g></svg>