<svg xmlns="http://www.w3.org/2000/svg" xmlns:xlink="http://www.w3.org/1999/xlink" viewBox="0 0 959.93 411.76"><defs><style>.cls-1{fill:url(#linear-gradient);}</style><linearGradient id="linear-gradient" y1="205.88" x2="959.93" y2="205.88" gradientUnits="userSpaceOnUse"><stop offset="0" stop-color="#ff992e"/><stop offset="0.22" stop-color="#f88138"/><stop offset="0.67" stop-color="#e74453"/><stop offset="1" stop-color="#da1467"/></linearGradient></defs><title>EzDeFi Docs</title><g id="Layer_2" data-name="Layer 2"><g id="Layer_1-2" data-name="Layer 1"><path class="cls-1" d="M460.62,362.12a33,33,0,0,1-12,10.16A35.78,35.78,0,0,1,432.3,376H409.74l9.92-56.64h22.56a30.41,30.41,0,0,1,13.48,2.76,19.78,19.78,0,0,1,8.6,7.8,22.66,22.66,0,0,1,3,11.68,30.35,30.35,0,0,1-.56,5.92A34,34,0,0,1,460.62,362.12Zm-15.68-4a16.83,16.83,0,0,0,5.84-10.64,17.79,17.79,0,0,0,.32-3.44q0-5.28-3.36-8.12t-9.36-2.84H433l-5.12,28.8h5.36A18,18,0,0,0,444.94,358.12ZM508,332.8a16.86,16.86,0,0,1,7.16,6.6,19.8,19.8,0,0,1,2.56,10.24,31.38,31.38,0,0,1-.48,5.28,25.65,25.65,0,0,1-5,11.52,25.34,25.34,0,0,1-9.52,7.48,29.13,29.13,0,0,1-12.24,2.6,24.19,24.19,0,0,1-10.8-2.28,16.86,16.86,0,0,1-7.24-6.64,19.61,19.61,0,0,1-2.6-10.28,29.94,29.94,0,0,1,.48-5.2,25.27,25.27,0,0,1,14.72-19,29.83,29.83,0,0,1,12.4-2.6A23.58,23.58,0,0,1,508,332.8Zm-18.36,13.72a12.41,12.41,0,0,0-3.44,7A15.73,15.73,0,0,0,486,356a7,7,0,0,0,1.72,5.12,5.93,5.93,0,0,0,4.44,1.76,8.22,8.22,0,0,0,5.76-2.4,12.62,12.62,0,0,0,3.44-7,15.73,15.73,0,0,0,.24-2.56,6.92,6.92,0,0,0-1.72-5.08,6,6,0,0,0-4.44-1.72A8.19,8.19,0,0,0,489.66,346.52Zm71-11.16q5.28,4.84,5.36,13.4H549.42a5.73,5.73,0,0,0-1.48-3.56,4.82,4.82,0,0,0-3.56-1.24,6.7,6.7,0,0,0-5.08,2.4,14.13,14.13,0,0,0-3.08,7.12,24.84,24.84,0,0,0-.32,3,7.24,7.24,0,0,0,1.4,4.84A4.62,4.62,0,0,0,541,363a6.44,6.44,0,0,0,4-1.28,8.47,8.47,0,0,0,2.64-3.52h16.72a27.85,27.85,0,0,1-9.88,13.44A25.81,25.81,0,0,1,539,376.52q-8.81,0-14-5t-5.24-13.8a36.76,36.76,0,0,1,.56-5.6,26.64,26.64,0,0,1,4.88-11.52,24.33,24.33,0,0,1,9.2-7.48,27.85,27.85,0,0,1,12-2.6Q555.41,330.52,560.7,335.36Zm43.84-.52a16.56,16.56,0,0,1,5.84,11.44H594.94a4.24,4.24,0,0,0-1.88-3.6,8.29,8.29,0,0,0-4.68-1.2,6.7,6.7,0,0,0-3.28.68,2.28,2.28,0,0,0-1.2,2.12c0,1,.64,1.73,1.92,2.32a37.49,37.49,0,0,0,6,1.92A64.33,64.33,0,0,1,600,351a15.92,15.92,0,0,1,5.76,3.92,9.62,9.62,0,0,1,2.44,6.84,13.51,13.51,0,0,1-.32,3,12.86,12.86,0,0,1-6.12,8.44q-5.09,3.24-13.72,3.24-9.28,0-15-4.12A14.53,14.53,0,0,1,567,360.76h15.44a3.57,3.57,0,0,0,1.72,3.64,9.48,9.48,0,0,0,5.16,1.24c2.56,0,4-.85,4.4-2.56a2.42,2.42,0,0,0-1.6-2.72,31.58,31.58,0,0,0-6.32-2,77.84,77.84,0,0,1-8.12-2.48,14.28,14.28,0,0,1-5.52-3.76,9.61,9.61,0,0,1-2.36-6.8,21.34,21.34,0,0,1,.32-3,12.5,12.5,0,0,1,5.92-8.52q5-3.31,13.68-3.32Q599.42,330.52,604.54,334.84Zm-30.34-81.9a104.24,104.24,0,0,1-39,32.63q-23.79,11.7-53.17,11.7H412.61l32.24-183.82h69.42q25.74,0,44.2,8.84t27.95,25.09q9.48,16.26,9.49,38.09a102.24,102.24,0,0,1-1.82,19.5A113.18,113.18,0,0,1,574.2,252.94Zm-46.41-9.23q16.89-13.77,21.32-38.74a73.24,73.24,0,0,0,1.3-12.48q0-19.23-12.22-29.64t-34.58-10.4H482.55l-18.46,105h21.06Q510.89,257.49,527.79,243.71Zm201.88-78.13q16.26,15.21,16.25,40.69a99.22,99.22,0,0,1-1.3,14.56,55.39,55.39,0,0,1-3.38,12H640.62c-.34,3.47-.52,5.81-.52,7q0,23.67,22.62,23.66a30.53,30.53,0,0,0,17.16-4.94,28.61,28.61,0,0,0,10.92-12.74h47.06a78.8,78.8,0,0,1-29.77,38.48q-21.18,14.82-49.53,14.82-28.08,0-44.59-15.6t-16.51-43.16A107.82,107.82,0,0,1,599,222.65q3.9-22.1,16.12-38.48a81.56,81.56,0,0,1,30.29-25.09,89.63,89.63,0,0,1,39.39-8.71Q713.43,150.37,729.67,165.58Zm-28.21,40.69q0-10.4-6.5-15.6t-16.38-5.2A34.2,34.2,0,0,0,657,192.75q-9.36,7.29-13,21.32h56.68A45.41,45.41,0,0,0,701.46,206.27Zm246.77-54.08L922.49,297.27H878l25.48-145.08Zm-33-56.29Q924,88,937.31,88q10.4,0,16.51,5.33a17.6,17.6,0,0,1,6.11,13.91,25.21,25.21,0,0,1-8.71,19.37q-8.72,7.94-22,7.93-10.66,0-16.77-5.33a17.27,17.27,0,0,1-6.11-13.65A25.3,25.3,0,0,1,915.21,95.9ZM201.39,255.54a5.68,5.68,0,0,1-3.31-10.29L299.14,173c24.88-17.79,58.69,4.07,52.69,34.06h0a60.27,60.27,0,0,1-59.1,48.45ZM64.39,37.79.93,355.57A47,47,0,0,0,47,411.76H305.22A47,47,0,0,0,351.3,374h0a47,47,0,0,0-46.08-56.2h-160A38.89,38.89,0,0,1,107.17,271h0a48.17,48.17,0,0,1,19.1-29.39l98.94-71a6.65,6.65,0,0,0-3.87-12H169.19A32.3,32.3,0,0,1,137.51,120h0a32.31,32.31,0,0,1,31.68-26H363.37a47,47,0,0,0,46.08-37.77h0A47,47,0,0,0,363.37,0H110.47A47,47,0,0,0,64.39,37.79ZM893,113.45l-6.24,35.36h-75.4l-7,40.3h58.24l-6,33.8h-58l-13.26,74.36H740.9l32.24-183.82Z"/></g></g></svg>